<?xml version="1.0" standalone="no"?>
<!DOCTYPE svg PUBLIC "-//W3C//DTD SVG 20010904//EN"
 "http://www.w3.org/TR/2001/REC-SVG-20010904/DTD/svg10.dtd">
<svg version="1.0" xmlns="http://www.w3.org/2000/svg"
 width="1024.000000pt" height="1024.000000pt" viewBox="0 0 1024.000000 1024.000000"
 preserveAspectRatio="xMidYMid meet">
<metadata>
Created by potrace 1.14, written by Peter Selinger 2001-2017
</metadata>
<g transform="translate(0.000000,1024.000000) scale(0.100000,-0.100000)"
fill="#000000" stroke="none">
<path d="M4885 9113 c-601 -35 -1118 -171 -1615 -426 -380 -195 -675 -411
-986 -721 -332 -333 -577 -677 -773 -1088 -151 -315 -259 -649 -321 -991 -69
-386 -79 -865 -24 -1247 168 -1179 847 -2204 1869 -2822 382 -231 803 -394
1250 -483 295 -59 413 -70 765 -70 329 0 419 7 678 50 813 138 1569 539 2154
1143 488 505 826 1117 993 1797 132 539 147 1123 44 1665 -299 1566 -1515
2798 -3080 3119 -290 60 -682 90 -954 74z m800 -1623 c694 -50 1305 -400 1680
-965 318 -478 430 -1069 309 -1625 -53 -242 -162 -505 -292 -705 l-58 -90 317
-440 c175 -242 318 -443 318 -447 1 -5 -406 -8 -904 -8 l-905 0 -49 -30 c-89
-55 -294 -148 -416 -188 -138 -46 -317 -86 -457 -101 -130 -15 -2668 -15
-2668 -1 0 5 93 139 207 297 114 159 257 358 319 444 l112 156 -63 97 c-117
182 -209 390 -265 600 -55 206 -64 289 -64 551 0 219 3 252 28 379 111 570
432 1060 909 1384 112 76 253 154 363 201 39 16 129 69 200 117 291 196 635
325 974 363 88 10 140 15 230 19 19 1 98 -3 175 -8z"/>
<path d="M4400 6244 c-292 -36 -513 -186 -630 -428 -66 -136 -91 -240 -98
-398 -5 -139 6 -240 44 -390 13 -53 24 -126 24 -161 0 -59 -5 -74 -59 -179
-73 -142 -95 -233 -89 -356 5 -106 35 -175 105 -245 54 -55 120 -89 213 -113
54 -14 91 -15 225 -9 88 4 203 8 256 9 l95 1 137 -68 c222 -109 377 -154 573
-164 186 -10 319 18 479 101 103 53 242 188 298 290 127 234 152 535 67 831
-34 119 -27 175 39 318 123 262 121 460 -5 597 -61 66 -148 113 -238 129 -86
16 -238 13 -346 -5 -143 -25 -173 -19 -356 68 -192 91 -273 121 -402 148 -99
20 -266 32 -332 24z m316 -160 c198 -40 374 -125 374 -180 0 -6 -56 -37 -124
-69 -336 -156 -653 -382 -924 -659 -82 -83 -141 -136 -153 -136 -50 0 -84 140
-83 345 1 226 61 382 199 521 177 178 419 239 711 178z m1124 -241 c73 -23
141 -90 159 -156 36 -129 -42 -363 -109 -327 -11 6 -38 38 -62 73 -65 98 -126
175 -215 274 -99 109 -106 141 -33 156 48 10 205 -2 260 -20z m-495 -87 c105
-49 334 -313 419 -482 67 -133 12 -223 -309 -511 -214 -193 -495 -374 -766
-495 -134 -59 -203 -71 -274 -44 -90 35 -335 313 -416 474 -69 135 -45 197
151 392 226 225 504 428 777 568 251 128 320 145 418 98z m558 -843 c21 -24
34 -79 47 -200 30 -283 -53 -521 -237 -675 -123 -102 -251 -149 -433 -156 -69
-2 -157 1 -196 7 -148 23 -348 96 -390 142 -28 31 3 61 123 119 189 90 413
226 502 304 20 18 74 59 121 91 46 33 159 133 251 223 92 89 174 162 182 162
7 0 21 -8 30 -17z m-2016 -305 c11 -13 40 -52 63 -88 56 -85 96 -135 197 -248
46 -51 83 -99 83 -107 0 -33 -50 -50 -150 -50 -130 1 -197 22 -259 83 -74 71
-91 175 -51 303 38 121 74 154 117 107z"/>
</g>
</svg>
