<svg width="52" height="53" viewBox="0 0 52 53" fill="none" xmlns="http://www.w3.org/2000/svg">
<path fill-rule="evenodd" clip-rule="evenodd" d="M26.0002 50.4517C39.1118 50.4517 49.7408 39.8227 49.7408 26.7112C49.7408 13.5996 39.1118 2.97064 26.0002 2.97064C12.8887 2.97064 2.25971 13.5996 2.25971 26.7112C2.25971 39.8227 12.8887 50.4517 26.0002 50.4517ZM26.0002 52.5161C40.2519 52.5161 51.8052 40.9629 51.8052 26.7112C51.8052 12.4595 40.2519 0.90625 26.0002 0.90625C11.7486 0.90625 0.195312 12.4595 0.195312 26.7112C0.195312 40.9629 11.7486 52.5161 26.0002 52.5161Z" fill="#333333"/>
<path fill-rule="evenodd" clip-rule="evenodd" d="M25.9997 19.8896L36.9056 30.7956L35.0809 32.6203L25.9997 23.539L16.9184 32.6203L15.0938 30.7956L25.9997 19.8896Z" fill="#333333"/>
</svg>
